<mxfile host="65bd71144e">
    <diagram name="Component Diagram" id="0">
        <mxGraphModel dx="1538" dy="1126" grid="0" gridSize="10" guides="1" tooltips="1" connect="1" arrows="1" fold="1" page="1" pageScale="1" pageWidth="827" pageHeight="1169" math="0" shadow="0">
            <root>
                <mxCell id="0"/>
                <mxCell id="1" parent="0"/>
                <mxCell id="2" value="User Management" style="swimlane;html=1;" parent="1" vertex="1">
                    <mxGeometry x="82" y="194" width="160" height="245" as="geometry"/>
                </mxCell>
                <mxCell id="3" value="User" style="rounded=1;whiteSpace=wrap;html=1;" parent="2" vertex="1">
                    <mxGeometry x="20" y="43" width="100" height="40" as="geometry"/>
                </mxCell>
                <mxCell id="4" value="Role" style="rounded=1;whiteSpace=wrap;html=1;" parent="2" vertex="1">
                    <mxGeometry x="20" y="103" width="100" height="40" as="geometry"/>
                </mxCell>
                <mxCell id="5" value="Admin" style="rounded=1;whiteSpace=wrap;html=1;" parent="2" vertex="1">
                    <mxGeometry x="20" y="163" width="100" height="40" as="geometry"/>
                </mxCell>
                <mxCell id="8" value="Vehicle Management" style="swimlane;html=1;" parent="1" vertex="1">
                    <mxGeometry x="392" y="137" width="160" height="120" as="geometry"/>
                </mxCell>
                <mxCell id="9" value="Vehicle" style="rounded=1;whiteSpace=wrap;html=1;" parent="8" vertex="1">
                    <mxGeometry x="20" y="20" width="100" height="40" as="geometry"/>
                </mxCell>
                <mxCell id="10" value="Trip Management" style="swimlane;html=1;" parent="1" vertex="1">
                    <mxGeometry x="362" y="587" width="160" height="120" as="geometry"/>
                </mxCell>
                <mxCell id="11" value="Trip" style="rounded=1;whiteSpace=wrap;html=1;" parent="10" vertex="1">
                    <mxGeometry x="30" y="60" width="100" height="40" as="geometry"/>
                </mxCell>
                <mxCell id="12" value="Financial Management" style="swimlane;html=1;" parent="1" vertex="1">
                    <mxGeometry x="582" y="477" width="160" height="120" as="geometry"/>
                </mxCell>
                <mxCell id="13" value="Bank Account" style="rounded=1;whiteSpace=wrap;html=1;" parent="12" vertex="1">
                    <mxGeometry x="30" y="50" width="100" height="40" as="geometry"/>
                </mxCell>
                <mxCell id="14" value="Call Center Management" style="swimlane;html=1;" parent="1" vertex="1">
                    <mxGeometry x="592" y="237" width="160" height="200" as="geometry"/>
                </mxCell>
                <mxCell id="15" value="Call Center Agent" style="rounded=1;whiteSpace=wrap;html=1;" parent="14" vertex="1">
                    <mxGeometry x="30" y="50" width="100" height="40" as="geometry"/>
                </mxCell>
                <mxCell id="16" value="Call Center Request" style="rounded=1;whiteSpace=wrap;html=1;" parent="14" vertex="1">
                    <mxGeometry x="30" y="130" width="100" height="40" as="geometry"/>
                </mxCell>
                <mxCell id="17" value="" style="edgeStyle=orthogonalEdgeStyle;rounded=0;orthogonalLoop=1;jettySize=auto;" parent="1" source="3" target="9" edge="1">
                    <mxGeometry relative="1" as="geometry"/>
                </mxCell>
                <mxCell id="18" value="" style="edgeStyle=orthogonalEdgeStyle;rounded=0;orthogonalLoop=1;jettySize=auto;" parent="1" source="6" target="11" edge="1">
                    <mxGeometry relative="1" as="geometry"/>
                </mxCell>
                <mxCell id="19" value="" style="edgeStyle=orthogonalEdgeStyle;rounded=0;orthogonalLoop=1;jettySize=auto;" parent="1" source="7" target="11" edge="1">
                    <mxGeometry relative="1" as="geometry"/>
                </mxCell>
                <mxCell id="20" value="" style="edgeStyle=orthogonalEdgeStyle;rounded=0;orthogonalLoop=1;jettySize=auto;" parent="1" source="11" target="13" edge="1">
                    <mxGeometry relative="1" as="geometry"/>
                </mxCell>
                <mxCell id="21" value="" style="edgeStyle=orthogonalEdgeStyle;rounded=0;orthogonalLoop=1;jettySize=auto;" parent="1" source="3" target="16" edge="1">
                    <mxGeometry relative="1" as="geometry">
                        <Array as="points">
                            <mxPoint x="326" y="265"/>
                            <mxPoint x="326" y="387"/>
                        </Array>
                    </mxGeometry>
                </mxCell>
                <mxCell id="6" value="Driver" style="rounded=1;whiteSpace=wrap;html=1;" parent="1" vertex="1">
                    <mxGeometry x="112" y="486" width="100" height="40" as="geometry"/>
                </mxCell>
                <mxCell id="7" value="Passenger" style="rounded=1;whiteSpace=wrap;html=1;" parent="1" vertex="1">
                    <mxGeometry x="112" y="647" width="100" height="40" as="geometry"/>
                </mxCell>
                <mxCell id="22" value="&lt;h1&gt;City Taxi - Component Diagram&lt;/h1&gt;" style="text;html=1;strokeColor=none;fillColor=none;spacing=5;spacingTop=-20;whiteSpace=wrap;overflow=hidden;rounded=0;" vertex="1" parent="1">
                    <mxGeometry x="57" y="42" width="453" height="49" as="geometry"/>
                </mxCell>
            </root>
        </mxGraphModel>
    </diagram>
</mxfile>